<svg version="1.1" xmlns="http://www.w3.org/2000/svg" style="display: block;" viewBox="440 750 1230 550" width="1230" height="550" preserveAspectRatio="xMidYMid meet">
<path transform="translate(0,0)" fill="none" d="M 0 0 L 2048 0 L 2048 2048 L 0 2048 L 0 0 z"/>
<path transform="translate(0,0)" fill="rgb(119,179,217)" d="M 766.737 787.566 C 820.729 760.544 891.25 757.638 949.109 773.504 C 981.695 782.538 1014.25 800.018 1038.93 823.104 C 1052 835.91 1059.01 842.636 1069.78 857.696 C 1074.47 863.562 1090.74 890.296 1091.63 896.679 C 1096.1 907.32 1099.31 915.606 1101.51 926.941 C 1114.8 967.023 1105.46 1017.76 1086.82 1054.98 C 1072.09 1083.74 1050.37 1108.35 1023.66 1126.55 C 1020.82 1128.48 1012.14 1134.18 1009.05 1135.38 C 1003.29 1138.68 1000.29 1140.55 994.036 1142.8 C 979.472 1150.56 950.961 1157.83 934.455 1158.88 C 904.634 1160.47 881.794 1157.05 854.704 1144.39 C 836.348 1137.82 815.313 1116.16 804.648 1100.04 C 798.156 1089.36 794.226 1080.3 791.446 1067.97 C 784.726 1039.11 789.808 1008.76 805.562 983.663 C 815.762 964.882 832.755 954.635 851.055 945.121 C 850.246 944.631 846.269 945.176 844.819 945.26 L 845.341 944.488 C 850.585 942.285 851.824 941.76 857.451 940.952 L 858.669 940.789 L 857.245 939.533 C 879.71 934.268 904.51 940.407 925.817 947.469 C 919.349 950.164 916.835 950.164 909.826 950.051 C 899.26 951.459 885.724 957.831 877.571 964.673 C 847.74 989.703 843.15 1026.56 865.55 1057.86 C 874.145 1066.1 879.202 1070.78 890.234 1075.63 C 923.662 1088.8 949.236 1081.35 977.015 1060.54 C 999.393 1040.76 1012.2 1015.05 1013.5 985.287 C 1015.51 939.385 1001.57 912.356 972.836 879.324 C 970.377 877.756 966.929 873.944 964.773 871.746 C 956.09 865.339 950.034 860.731 940.773 854.632 C 929.224 850.226 918.693 843.917 903.761 838.55 C 871.227 830.047 852.831 828.847 819.956 831.141 C 804.652 834.314 788.689 836.239 773.795 841.313 C 715.317 861.235 655.362 907.701 627.353 963.199 C 629.142 955.398 632.35 939.414 635.401 932.801 C 641.509 915.429 647.231 902.778 656.598 886.964 C 658.277 882.87 666.554 870.438 669.276 866.648 C 692.592 834.18 729.809 803.119 766.737 787.566 z"/>
<path transform="translate(0,0)" fill="rgb(110,167,197)" d="M 972.836 879.324 C 978.969 880.499 986.746 890.448 990.767 896.198 C 1024.33 944.187 1028.92 1018.12 981.999 1059.36 C 980.735 1060.47 978.659 1060.47 977.015 1060.54 C 999.393 1040.76 1012.2 1015.05 1013.5 985.287 C 1015.51 939.385 1001.57 912.356 972.836 879.324 z"/>
<path transform="translate(0,0)" fill="rgb(110,167,197)" d="M 766.737 787.566 C 820.729 760.544 891.25 757.638 949.109 773.504 C 944.235 775.273 931.892 771.56 925.966 770.392 C 872.847 759.923 819.448 768.563 769.411 788.023 C 768.913 788.217 767.3 787.718 766.737 787.566 z"/>
<path transform="translate(0,0)" fill="rgb(110,167,197)" d="M 805.562 983.663 C 806.634 989.479 795.595 1009.78 793.963 1018.26 C 789.997 1038.85 790.486 1057.05 796.567 1077.26 C 799.407 1086.7 805.398 1090.15 804.648 1100.04 C 798.156 1089.36 794.226 1080.3 791.446 1067.97 C 784.726 1039.11 789.808 1008.76 805.562 983.663 z"/>
<path transform="translate(0,0)" fill="rgb(212,234,244)" d="M 857.245 939.533 C 879.71 934.268 904.51 940.407 925.817 947.469 C 919.349 950.164 916.835 950.164 909.826 950.051 C 912.183 949.493 913.822 949.035 916.129 948.297 L 915.165 947.212 C 889.683 938.324 876.443 939.471 851.055 945.121 C 850.246 944.631 846.269 945.176 844.819 945.26 L 845.341 944.488 C 850.585 942.285 851.824 941.76 857.451 940.952 L 858.669 940.789 L 857.245 939.533 z"/>
<path transform="translate(0,0)" fill="rgb(110,167,197)" d="M 819.956 831.141 C 830.11 824.215 893.482 828.9 903.621 837.375 L 903.761 838.55 C 871.227 830.047 852.831 828.847 819.956 831.141 z"/>
<path transform="translate(0,0)" fill="rgb(110,167,197)" d="M 854.704 1144.39 C 860.179 1143.02 880.809 1151.83 889.479 1153.92 C 901.879 1156.9 924.881 1155.86 934.455 1158.88 C 904.634 1160.47 881.794 1157.05 854.704 1144.39 z"/>
<path transform="translate(0,0)" fill="rgb(110,167,197)" d="M 1069.78 857.696 C 1068.61 857.599 1066.74 857.174 1066.02 856.412 C 1056.63 846.387 1046.39 834.919 1036.65 825.55 L 1038.93 823.104 C 1052 835.91 1059.01 842.636 1069.78 857.696 z"/>
<path transform="translate(0,0)" fill="rgb(110,167,197)" d="M 656.598 886.964 C 656.478 892.618 641.515 925.251 637.516 932.094 C 637.181 932.667 636.289 932.674 635.401 932.801 C 641.509 915.429 647.231 902.778 656.598 886.964 z"/>
<path transform="translate(0,0)" fill="rgb(110,167,197)" d="M 890.234 1075.63 C 880.59 1077.69 870.642 1066.48 864.909 1059.67 L 865.55 1057.86 C 874.145 1066.1 879.202 1070.78 890.234 1075.63 z"/>
<path transform="translate(0,0)" fill="rgb(110,167,197)" d="M 1101.51 926.941 L 1100.06 927.141 C 1097.04 915.812 1091.37 907.995 1091.63 896.679 C 1096.1 907.32 1099.31 915.606 1101.51 926.941 z"/>
<path transform="translate(0,0)" fill="rgb(110,167,197)" d="M 940.773 854.632 C 948.454 854.149 961.888 864.314 964.773 871.746 C 956.09 865.339 950.034 860.731 940.773 854.632 z"/>
<path transform="translate(0,0)" fill="rgb(110,167,197)" d="M 994.036 1142.8 C 997.599 1137.53 1002.34 1133.35 1009.05 1135.38 C 1003.29 1138.68 1000.29 1140.55 994.036 1142.8 z"/>
<path transform="translate(0,0)" fill="rgb(9,71,115)" d="M 731.747 911.375 C 773.165 884.926 833.086 878.658 879.133 895.646 C 910.334 906.614 932.183 927.08 948.281 955.515 C 940.208 952.201 934.161 950.101 925.817 947.469 C 904.51 940.407 879.71 934.268 857.245 939.533 C 831.372 943.153 811.181 953.041 790.056 968.426 C 761.691 993.246 744.454 1019.68 741.76 1058.47 C 740.153 1081.28 744.186 1104.13 753.504 1125.01 C 761.644 1138.24 765.037 1145.18 775.23 1157.68 C 783.591 1166.71 790.203 1173.15 799.889 1180.84 C 805.58 1184.85 816.436 1191.21 820.626 1194.4 C 827.347 1197.54 835.558 1201.65 842.304 1204.4 C 843.496 1204.82 847.914 1206.29 848.763 1206.78 C 899.559 1222.08 936.095 1219.04 985.948 1204.52 C 992.85 1201.8 999.768 1199.12 1006.7 1196.48 C 1019.34 1190.56 1030.05 1184.47 1041.9 1177.3 C 1046.47 1173.99 1050.9 1170.66 1055.69 1167.68 C 1082.26 1146.56 1096.35 1130.63 1114.4 1102.38 C 1106.02 1127.52 1101.9 1141.47 1088.09 1165.14 C 1082.46 1175.79 1071.25 1191.5 1062.73 1200.11 C 1057.28 1206.65 1052.52 1211.1 1046.31 1217 C 1021.18 1242.85 978.216 1265.96 943.257 1274.51 C 934.444 1277.05 922.955 1279.67 913.835 1280.42 C 913.242 1280.64 910.664 1281.09 910.072 1281.19 C 858.691 1289.33 786.177 1273.47 743.772 1243.66 C 717.64 1227.92 695.319 1206.59 678.41 1181.2 C 670.598 1170.39 664.762 1158 659.383 1145.86 C 658.014 1142.77 653.8 1129.71 652.687 1128.58 L 649.712 1131.99 C 645.001 1139.37 642.066 1143.26 636.349 1149.97 L 634.776 1151.29 C 629.669 1158.76 622.945 1165.1 616.203 1171.09 C 589.17 1196.74 553.256 1210.94 515.989 1210.69 C 502.372 1210.48 492.514 1208.7 479.53 1205.48 C 470.572 1203.08 459.813 1198.49 451.014 1195.03 C 477.021 1194.81 489.68 1191.02 513.281 1180.66 C 515.365 1178.79 521.841 1174.7 524.389 1173.03 C 561.761 1148.47 582.149 1112.19 605.356 1075.03 C 621.815 1044.59 639.249 1007.67 659.504 979.95 C 674.692 955.722 706.292 924.58 731.747 911.375 z"/>
<path transform="translate(0,0)" fill="rgb(11,51,84)" d="M 1055.69 1167.68 C 1082.26 1146.56 1096.35 1130.63 1114.4 1102.38 C 1106.02 1127.52 1101.9 1141.47 1088.09 1165.14 C 1087.5 1157.84 1091.52 1158.29 1090.14 1155.4 L 1089.19 1154.73 C 1090.88 1150.37 1092.05 1149.66 1091.25 1145.92 C 1084.06 1144.23 1067.94 1169.25 1055.69 1167.68 z"/>
<path transform="translate(0,0)" fill="rgb(11,51,84)" d="M 753.504 1125.01 L 752.267 1125.34 C 746.454 1119.71 739.173 1089.81 738.386 1081.35 C 735.827 1053.84 744.922 1013.56 763.086 992.092 C 768.758 985.389 781.922 969.187 790.056 968.426 C 761.691 993.246 744.454 1019.68 741.76 1058.47 C 740.153 1081.28 744.186 1104.13 753.504 1125.01 z"/>
<path transform="translate(0,0)" fill="rgb(11,51,84)" d="M 731.747 911.375 C 773.165 884.926 833.086 878.658 879.133 895.646 C 873.699 897.266 849.606 890.382 841.216 889.662 C 804.524 886.51 768.026 893.928 735.54 911.391 C 734.632 911.879 732.707 911.517 731.747 911.375 z"/>
<path transform="translate(0,0)" fill="rgb(11,51,84)" d="M 513.281 1180.66 C 505.891 1193.03 486.868 1185.47 486.742 1201.98 C 484.443 1205.4 483.627 1205.4 479.53 1205.48 C 470.572 1203.08 459.813 1198.49 451.014 1195.03 C 477.021 1194.81 489.68 1191.02 513.281 1180.66 z"/>
<path transform="translate(0,0)" fill="rgb(11,51,84)" d="M 985.948 1204.52 C 980.01 1212.85 933.57 1218.06 922.281 1219.69 C 909.326 1221.56 856.116 1215.68 848.763 1206.78 C 899.559 1222.08 936.095 1219.04 985.948 1204.52 z"/>
<path transform="translate(0,0)" fill="rgb(11,51,84)" d="M 659.504 979.95 C 659.723 985.092 614.106 1065 607.58 1075.33 L 605.356 1075.03 C 621.815 1044.59 639.249 1007.67 659.504 979.95 z"/>
<path transform="translate(0,0)" fill="rgb(11,51,84)" d="M 678.41 1181.2 C 686.546 1182.1 707.411 1215.29 717.201 1221.81 C 722.722 1225.48 742.912 1238.24 743.772 1243.66 C 717.64 1227.92 695.319 1206.59 678.41 1181.2 z"/>
<path transform="translate(0,0)" fill="rgb(11,51,84)" d="M 799.889 1180.84 C 798.719 1182.4 798.969 1181.98 797.28 1183.14 C 790.828 1180 776.081 1164.89 775.23 1157.68 C 783.591 1166.71 790.203 1173.15 799.889 1180.84 z"/>
<path transform="translate(0,0)" fill="rgb(11,51,84)" d="M 1041.9 1177.3 C 1040.05 1185.32 1014.4 1196.93 1006.7 1196.48 C 1019.34 1190.56 1030.05 1184.47 1041.9 1177.3 z"/>
<path transform="translate(0,0)" fill="rgb(11,51,84)" d="M 1046.31 1217 C 1046.69 1211.84 1056.34 1200.89 1062.73 1200.11 C 1057.28 1206.65 1052.52 1211.1 1046.31 1217 z"/>
<path transform="translate(0,0)" fill="rgb(119,179,217)" d="M 1227.91 771.863 C 1269.07 762.419 1311.47 759.624 1353.52 763.583 C 1353.32 803.279 1354.82 1130.04 1352.3 1134.55 L 1349.78 1134.55 C 1284.44 1124.6 1218.18 1136.63 1158.45 1164.32 C 1143.88 1171.07 1129.97 1179.13 1115.78 1186.59 L 1109.96 1184.69 C 1111.7 1181.27 1114.4 1177.17 1116.46 1173.84 L 1128.66 1149.8 C 1132.49 1140.82 1134.93 1134.88 1137.81 1125.59 C 1185.5 1097.59 1251.86 1081.86 1306.94 1082.57 L 1306.84 884.586 L 1306.84 834.281 C 1306.85 829.064 1307.3 813.176 1306.5 808.693 L 1304.2 807.328 C 1295.71 808.015 1287.21 808.651 1278.7 809.238 L 1277.35 809.611 C 1267.19 812.327 1252.37 813.516 1241.21 816.227 C 1200.83 826.037 1142.67 853.377 1117.12 886.358 C 1114.58 879.026 1112.52 874.854 1108.79 867.943 C 1104.19 860.614 1100.28 855.151 1095.1 848.188 L 1089.51 842.354 C 1100.42 834.856 1110.06 826.01 1121.06 818.442 C 1153.48 796.432 1189.72 780.638 1227.91 771.863 z"/>
<path transform="translate(0,0)" fill="rgb(110,167,197)" d="M 1227.91 771.863 C 1269.07 762.419 1311.47 759.624 1353.52 763.583 C 1353.32 803.279 1354.82 1130.04 1352.3 1134.55 L 1349.78 1134.55 C 1351.42 1129.97 1351.52 1129.49 1351.54 1124.49 C 1351.75 1074.53 1351.53 1024.52 1351.29 974.562 C 1351.24 963.922 1350.32 953.757 1350.33 943.003 L 1351.53 815.689 C 1351.56 806.456 1352.33 772.552 1350.26 765.94 C 1343.23 763.916 1332 764.569 1324.73 764.411 C 1298.64 763.845 1272.58 765.225 1246.94 770.252 C 1241.08 771.4 1234.62 772.721 1228.72 773.458 L 1227.91 771.863 z"/>
<path transform="translate(0,0)" fill="rgb(110,167,197)" d="M 1278.7 809.238 C 1283.24 805.936 1301.9 802.737 1306.37 806.252 L 1304.2 807.328 C 1295.71 808.015 1287.21 808.651 1278.7 809.238 z"/>
<path transform="translate(0,0)" fill="rgb(110,167,197)" d="M 1128.66 1149.8 C 1129.84 1155.67 1122.17 1171.94 1117.16 1174.05 L 1116.46 1173.84 L 1128.66 1149.8 z"/>
<path transform="translate(0,0)" fill="rgb(110,167,197)" d="M 1095.1 848.188 C 1102.7 849.41 1108.62 860.696 1108.79 867.943 C 1104.19 860.614 1100.28 855.151 1095.1 848.188 z"/>
<path transform="translate(0,0)" fill="rgb(9,71,115)" d="M 1382.41 1167.25 C 1381.12 1152.78 1382.06 1122.52 1382.08 1106.98 L 1382.07 992.11 L 1382 878.676 C 1381.99 865.853 1381.03 835.983 1382.09 824.63 C 1384.71 823.033 1386.36 824.316 1390.48 825.252 L 1428.14 834.722 L 1427.87 1091.98 C 1427.79 1135.78 1426.74 1183.57 1427.76 1226.88 C 1357.45 1203.09 1271.83 1197.36 1199.27 1212.33 C 1185.54 1215.15 1171.94 1218.6 1158.52 1222.67 C 1153.84 1224.09 1140.58 1228.76 1137.23 1229.42 C 1098.03 1244.19 1074.6 1256.79 1039.09 1278.25 C 1065.42 1253.29 1088.01 1231.78 1119.76 1213.24 C 1136.07 1199.81 1184.99 1179.69 1205.9 1173.67 C 1259.21 1157.41 1319.9 1154.27 1374.25 1167.53 C 1377.02 1168.26 1378.13 1168.45 1380.98 1168.82 L 1382.41 1167.25 z"/>
<path transform="translate(0,0)" fill="rgb(11,51,84)" d="M 1382.41 1167.25 C 1381.12 1152.78 1382.06 1122.52 1382.08 1106.98 L 1382.07 992.11 L 1382 878.676 C 1381.99 865.853 1381.03 835.983 1382.09 824.63 C 1384.71 823.033 1386.36 824.316 1390.48 825.252 C 1386.03 826.661 1386.29 825.753 1384.46 828.765 C 1385.01 854.792 1386.14 1164.82 1384.27 1168.88 C 1382.69 1167.99 1383.27 1168.57 1382.41 1167.25 z"/>
<path transform="translate(0,0)" fill="rgb(11,51,84)" d="M 1119.76 1213.24 L 1119.36 1215.49 C 1112.3 1220.03 1104.78 1223.37 1103.86 1232.57 L 1100.83 1232.13 L 1099.61 1233.41 C 1099.88 1237.42 1099.1 1235.83 1101.65 1238.5 C 1113.5 1241.78 1127.08 1226.04 1137.23 1229.42 C 1098.03 1244.19 1074.6 1256.79 1039.09 1278.25 C 1065.42 1253.29 1088.01 1231.78 1119.76 1213.24 z"/>
<path transform="translate(0,0)" fill="rgb(11,51,84)" d="M 1205.9 1173.67 C 1259.21 1157.41 1319.9 1154.27 1374.25 1167.53 C 1364.07 1170.22 1333.81 1162.25 1320.09 1161.75 C 1296.3 1160.9 1276.21 1161.41 1252.48 1165.02 C 1244.35 1166.25 1210.28 1175.22 1205.9 1173.67 z"/>
<path transform="translate(0,0)" fill="rgb(212,234,244)" d="M 1615.8 838.517 C 1622 837.195 1644.44 838.355 1651.26 839.531 C 1644.67 840.361 1621.54 840.974 1615.8 838.517 z"/>
<path transform="translate(0,0)" fill="rgb(110,167,197)" d="M 1109.96 1184.69 L 1115.78 1186.59 C 1110.3 1190.46 1105.08 1195.07 1099.94 1199.41 L 1109.96 1184.69 z"/>
<path transform="translate(0,0)" fill="rgb(212,234,244)" d="M 565.435 1120.76 C 567.358 1123 567.452 1123.32 568.847 1125.96 L 567.839 1128.58 L 565.031 1128.69 C 563.673 1126.08 564.74 1124.47 565.435 1120.76 z"/>
<path transform="translate(0,0)" fill="rgb(212,234,244)" d="M 1356.65 838.533 C 1362.64 837.691 1364.65 836.968 1369.91 839.584 C 1364.36 840.438 1361.86 840.417 1356.65 838.533 z"/>
</svg>