<svg version="1.1" xmlns="http://www.w3.org/2000/svg" style="display: block;" viewBox="0 0 2048 827" width="2048" height="827" preserveAspectRatio="none">
<path transform="translate(0,0)" fill="rgb(254,254,254)" d="M 0 0 L 2048 0 L 2048 827 L 0 827 L 0 0 z"/>
<path transform="translate(0,0)" fill="rgb(130,189,221)" d="M 135.287 366.108 C 136.388 361.245 137.54 356.543 138.882 351.748 C 161.216 272.53 249.749 228.457 327.225 252.603 C 396.084 274.064 438 341.959 415.62 412.551 C 406.752 440.881 386.879 464.464 360.461 478.007 C 320.471 498.643 262.637 497.101 238.785 452.434 C 222.475 421.891 230.632 375.794 263.79 359.248 C 266.587 358.292 270.145 357.688 271.478 355.595 L 269.29 354.41 C 286.312 350.873 304.615 355.529 320.262 362.223 C 312.675 361.265 307.279 360.871 299.738 362.723 C 288.306 365.443 278.435 372.621 272.323 382.658 C 266.865 391.77 265.31 402.696 268.01 412.969 C 270.584 423.081 277.141 431.721 286.188 436.92 C 297.168 443.251 310.219 444.942 322.45 441.62 C 356.718 432.592 371.093 396.711 365.444 363.949 C 354.722 301.767 285.336 273.715 228.798 290.946 C 186.116 303.954 157.068 327.513 135.287 366.108 z"/>
<path transform="translate(0,0)" fill="rgb(16,74,117)" d="M 90.9006 484.222 C 95.7512 478.558 104.593 467.538 108.351 461.45 C 133.155 421.249 147.628 371.582 187.365 342.69 C 225 315.327 289.012 311.527 317.998 353.498 C 319.777 356.075 322.64 359.64 322.119 362.683 L 320.262 362.223 C 304.615 355.529 286.312 350.873 269.29 354.41 L 271.478 355.595 C 270.145 357.688 266.587 358.292 263.79 359.248 C 262.197 358.187 258.645 357.941 256.548 357.649 C 234.321 366.931 217.364 378.93 207.822 401.96 C 199.288 422.839 199.391 446.253 208.11 467.056 C 225.273 507.75 263.194 523.559 304.461 527.052 C 327.794 526.003 340.611 523.074 361.887 514.118 C 375.277 507.563 385.011 501.154 397.292 492.714 C 410.553 480.542 415.258 474.687 425.506 459.961 C 414.85 497.342 395.175 525.263 361.113 546.203 C 360.141 546.801 358.185 547.775 357.115 548.132 C 353.24 551.487 342.776 556.164 337.888 558.026 C 300.978 572.285 259.891 571.14 223.832 554.848 C 186.514 538.1 162.769 508.725 148.549 471.136 C 141.152 482.875 128.742 497.562 117.185 505.059 C 113.838 508.273 104.529 513.549 100.152 515.303 C 73.2766 526.073 55.5374 522.764 30.2497 512.761 C 57.8909 511.058 71.3386 503.52 90.9006 484.222 z"/>
<path transform="translate(0,0)" fill="rgb(20,70,109)" d="M 90.9006 484.222 C 90.7276 498.828 57.1427 507.694 50.356 515.359 L 50.5832 516.878 C 56.2517 519.218 83.9476 518.774 89.7858 516.351 C 95.2348 514.09 112.646 504.287 117.185 505.059 C 113.838 508.273 104.529 513.549 100.152 515.303 C 73.2766 526.073 55.5374 522.764 30.2497 512.761 C 57.8909 511.058 71.3386 503.52 90.9006 484.222 z"/>
<path transform="translate(0,0)" fill="rgb(20,70,109)" d="M 397.292 492.714 C 410.553 480.542 415.258 474.687 425.506 459.961 C 414.85 497.342 395.175 525.263 361.113 546.203 C 360.141 546.801 358.185 547.775 357.115 548.132 C 357.84 543.914 381.959 529.287 388.935 521.009 C 402.312 505.134 408.751 497.983 416.624 478.371 C 409.639 483.153 404.344 492.087 397.292 492.714 z"/>
<path transform="translate(0,0)" fill="rgb(172,205,221)" d="M 256.548 357.649 C 259.846 356.575 265.731 355.29 269.29 354.41 L 271.478 355.595 C 270.145 357.688 266.587 358.292 263.79 359.248 C 262.197 358.187 258.645 357.941 256.548 357.649 z"/>
<path transform="translate(0,0)" fill="rgb(130,189,221)" d="M 414.323 294.191 C 448.883 259.747 499.243 245.319 547.096 245.401 C 555.628 245.411 564.158 245.664 572.675 246.162 L 572.876 396.722 C 572.884 422.619 573.478 451.025 572.845 476.678 C 525.147 470.405 479.79 478.131 437.509 501.423 L 420.841 511.974 C 425.867 505.917 429.439 499.634 433.482 492.925 C 436.206 485.085 439.463 476.963 442.441 469.179 C 475.187 452.304 508.8 445.468 545.443 446.2 C 544.175 430.883 544.975 402.986 544.971 386.383 L 544.953 273.157 L 534.222 273.175 C 496.519 276.925 454.733 288.315 429.639 318.871 C 429.205 319.398 428.775 319.93 428.35 320.466 C 424.27 310.521 420.009 303.295 414.323 294.191 z"/>
<path transform="translate(0,0)" fill="rgb(172,205,221)" d="M 420.841 511.974 C 425.867 505.917 429.439 499.634 433.482 492.925 C 432.809 495.714 432.247 497.906 431.909 500.77 C 434.559 502.064 434.186 501.611 437.509 501.423 L 420.841 511.974 z"/>
<path transform="translate(0,0)" fill="rgb(16,74,117)" d="M 1092.64 303.955 C 1120.29 303.803 1163.16 299.145 1184.07 318.394 C 1207.47 339.939 1205.6 374.919 1185.59 397.596 C 1161.57 419.357 1124.63 413.905 1092.91 413.701 C 1092.94 377.632 1093.53 339.896 1092.64 303.955 z"/>
<path transform="translate(0,0)" fill="rgb(254,254,254)" d="M 1114.12 321.482 C 1130.27 321.283 1153.98 318.57 1166.9 329.958 C 1184.33 345.322 1183.18 368.455 1168.98 385.402 C 1154.31 399.447 1133.05 396.633 1113.69 396.494 C 1113.68 386.508 1112.14 327.884 1114.12 321.482 z"/>
<path transform="translate(0,0)" fill="rgb(16,74,117)" d="M 590.222 283.22 C 599.116 284.52 608.416 286.198 617.324 287.663 L 617.321 532.17 C 569.528 516.11 522.67 515.951 473.755 524.435 C 470.734 525.358 451.74 530.566 449.418 530.685 C 424.008 540.547 410.291 546.61 387.16 560.711 C 393.965 553.794 410.07 537.543 418.124 533.719 L 418.536 533.504 C 420.186 531.558 426.011 527.663 428.534 526.056 C 481.333 492.426 530.393 485.699 590.25 497.517 L 590.222 283.22 z"/>
<path transform="translate(0,0)" fill="rgb(20,70,109)" d="M 590.222 283.22 C 599.116 284.52 608.416 286.198 617.324 287.663 L 617.321 532.17 C 569.528 516.11 522.67 515.951 473.755 524.435 C 478.903 512.136 567.494 515.76 581.74 521.02 C 586.557 522.798 612.128 527.764 614.392 525.982 C 614.435 447.803 614.658 369.226 613.81 291.25 C 613.793 289.705 599.304 285.111 593.599 289.658 C 592.77 305.875 593.283 326.162 593.237 342.616 L 593.053 443.442 C 593.035 460.868 593.695 483.303 592.31 500.137 C 540.71 491.543 495.332 492.13 448.292 517.175 C 442.658 520.175 422.74 534.054 418.536 533.504 C 420.186 531.558 426.011 527.663 428.534 526.056 C 481.333 492.426 530.393 485.699 590.25 497.517 L 590.222 283.22 z"/>
<path transform="translate(0,0)" fill="rgb(20,70,109)" d="M 418.124 533.719 C 416.449 536.887 415.931 536.544 416.509 539.302 C 425.125 541.551 436.853 529.793 449.418 530.685 C 424.008 540.547 410.291 546.61 387.16 560.711 C 393.965 553.794 410.07 537.543 418.124 533.719 z"/>
<path transform="translate(0,0)" fill="rgb(16,74,117)" d="M 687.11 303.919 C 708.367 303.808 729.912 303.01 751.091 304.689 C 779.478 306.94 791.671 338.495 767.207 355.816 C 784.475 366.223 790.472 380.45 781.508 399.14 C 765.858 419.735 712.443 413.798 687.096 413.791 L 687.11 303.919 z"/>
<path transform="translate(0,0)" fill="rgb(254,254,254)" d="M 708.181 365.737 C 720.486 366.065 732.922 365.143 745.216 366.164 C 760.766 367.455 771.473 377.809 760.191 392.512 C 746.629 399.587 724.173 397.203 708.17 396.905 C 708.048 386.602 708.173 376.062 708.181 365.737 z"/>
<path transform="translate(0,0)" fill="rgb(254,254,254)" d="M 708.186 320.413 C 722.176 320.304 777.579 315.595 754.937 345.299 C 744.463 351.571 721.317 349.378 708.15 349.09 C 707.964 339.754 708.155 329.8 708.186 320.413 z"/>
<path transform="translate(0,0)" fill="rgb(16,74,117)" d="M 804.895 303.935 C 825.061 303.817 846.876 302.508 866.64 305.755 C 894.323 310.304 906.325 341.381 890.965 363.925 C 886.762 370.095 880.828 373.463 874.521 377.135 C 882.783 389.463 891.318 401.607 900.119 413.557 L 886.75 413.811 L 876.38 413.716 L 854.318 380.887 L 825.959 380.911 C 825.927 391.821 825.963 402.731 826.068 413.641 L 805.037 413.636 C 805.176 377.069 805.128 340.501 804.895 303.935 z"/>
<path transform="translate(0,0)" fill="rgb(254,254,254)" d="M 825.915 321.459 C 841.583 321.299 872.749 316.865 875.6 337.987 C 876.707 346.19 874.962 350.973 870.21 357.378 C 858.398 366.306 840.438 364.138 826.037 363.918 L 825.915 321.459 z"/>
<path transform="translate(0,0)" fill="rgb(16,74,117)" d="M 1580.36 303.942 C 1614.28 303.727 1684.71 293.863 1671.35 354.403 C 1668.91 365.442 1658.99 372.054 1649.53 377.133 L 1676.02 413.616 L 1665.25 413.761 L 1652.31 413.705 C 1645.53 402.869 1637.54 391.735 1630.48 380.677 L 1601.17 380.942 L 1601.27 413.685 L 1580.46 413.712 C 1580.98 377.6 1580.47 340.138 1580.36 303.942 z"/>
<path transform="translate(0,0)" fill="rgb(254,254,254)" d="M 1601.14 321.165 C 1613.75 321.049 1634.96 318.804 1644.8 326.428 C 1655.22 334.505 1652.72 348.857 1645.56 358.074 C 1633.78 366.221 1615.26 364.169 1601.16 364.001 L 1601.14 321.165 z"/>
<path transform="translate(0,0)" fill="rgb(16,74,117)" d="M 966.401 303.926 L 983.926 303.972 C 990.096 310.571 999.116 322.319 1005.07 329.553 L 1044.6 377.323 L 1044.44 304.113 L 1065.46 304.046 L 1065.36 412.821 C 1062.92 414.457 1051.4 413.754 1047.76 413.677 L 987.111 340.343 L 987.107 413.765 L 966.649 413.749 L 966.401 303.926 z"/>
<path transform="translate(0,0)" fill="rgb(16,74,117)" d="M 1252.62 303.767 C 1259.87 303.66 1267.42 303.787 1274.69 303.802 C 1289.65 337.368 1308.61 381.631 1325.4 413.836 L 1302.36 413.628 L 1290.74 388.544 L 1273.75 388.508 L 1236.63 388.53 L 1225.86 413.658 L 1203.49 413.687 C 1220.32 379.05 1236.79 339.269 1252.62 303.767 z"/>
<path transform="translate(0,0)" fill="rgb(254,254,254)" d="M 1263.42 325.77 C 1266.11 328.621 1281.36 365.443 1284.13 371.639 L 1264.5 371.687 L 1243.59 371.669 C 1249.87 356.231 1256.48 340.928 1263.42 325.77 z"/>
<path transform="translate(0,0)" fill="rgb(16,74,117)" d="M 1742.48 303.936 L 1822.84 304.034 L 1822.87 320.93 L 1763.39 320.957 L 1763.32 349.175 C 1780.74 349.528 1799.12 349.292 1816.61 349.337 L 1816.68 366.317 C 1798.92 366.411 1781.16 366.386 1763.41 366.242 C 1763.47 372.689 1763.27 378.939 1763.08 385.382 C 1763.27 389.337 1763.41 392.749 1763.35 396.737 C 1784.01 396.925 1804.68 396.941 1825.34 396.786 L 1825.25 413.685 L 1742.52 413.747 C 1742.59 409.484 1742.53 403.621 1742.84 399.506 C 1742.26 396.273 1742.44 375.489 1742.44 370.671 L 1742.48 303.936 z"/>
<path transform="translate(0,0)" fill="rgb(20,70,109)" d="M 1762.29 399.165 C 1761.73 394.876 1760.18 388.611 1763.08 385.382 C 1763.27 389.337 1763.41 392.749 1763.35 396.737 C 1784.01 396.925 1804.68 396.941 1825.34 396.786 L 1825.25 413.685 L 1742.52 413.747 C 1742.59 409.484 1742.53 403.621 1742.84 399.506 C 1744.64 403.863 1743.99 406.664 1747.47 409.518 C 1756.73 411.075 1810.02 411.44 1821.31 408.092 C 1822.81 407.648 1823.06 406.292 1823.29 404.998 C 1822.91 403.907 1822.77 403.631 1821.92 402.817 C 1820.1 401.066 1817.82 399.873 1815.34 399.381 C 1811.69 398.627 1769.3 399.116 1762.29 399.165 z"/>
<path transform="translate(0,0)" fill="rgb(20,70,109)" d="M 1477.38 303.93 L 1558.02 303.971 L 1557.91 320.911 L 1498.19 321.038 L 1498.1 349.291 L 1551.07 349.33 L 1551.1 366.277 C 1534.41 366.669 1516.12 366.358 1499.32 366.37 C 1496.97 369.139 1498.04 391.421 1498.1 396.852 L 1560.26 396.889 L 1560.43 413.724 L 1477.72 413.722 C 1477.35 377.155 1477.92 340.55 1477.38 303.93 z"/>
<path transform="translate(0,0)" fill="rgb(16,74,117)" d="M 1414.56 302.445 C 1429.83 301.778 1441.42 305.122 1454.71 312.1 L 1448.21 328.655 C 1435.11 321.33 1412.06 313.334 1397.81 325.198 C 1396.23 326.518 1392.79 331.628 1393.52 333.562 C 1401.45 354.48 1438.04 347.04 1452.28 364.266 C 1456.56 368.733 1459.58 374.108 1459.4 380.61 C 1458.56 410.459 1433.4 415.593 1409.19 415.274 C 1394.04 413.85 1383.05 410.259 1370.88 401.308 C 1373.33 395.91 1375.85 390.546 1378.45 385.218 C 1391.77 395.476 1417.83 405.103 1434.38 392.828 C 1437.21 390.729 1438.98 386.894 1439.09 383.279 C 1433.41 363.666 1372.94 369.508 1372.83 337.981 C 1372.75 312.81 1392.3 303.838 1414.56 302.445 z"/>
<path transform="translate(0,0)" fill="rgb(16,74,117)" d="M 1871.27 303.327 C 1889.23 301.207 1905.49 302.993 1921.18 312.292 L 1914.64 328.88 C 1902.19 321.174 1879.83 314.261 1865.83 324.364 C 1862.81 326.541 1860.37 330.635 1860.06 334.465 C 1864.35 354.819 1924.69 346.536 1925.94 378.994 C 1926.97 406.016 1906.99 413.116 1884.5 415.525 C 1867.38 415.463 1850.95 413.055 1837.84 401.267 L 1844.86 385.032 C 1846.69 386.489 1848.57 387.889 1850.49 389.23 C 1889.09 415.744 1939.23 378.558 1875.73 367.055 C 1829.96 358.764 1826.19 314.539 1871.27 303.327 z"/>
<path transform="translate(0,0)" fill="rgb(130,189,221)" d="M 1640.21 458.624 C 1653.17 458.39 1672.99 456.461 1683.36 465.079 C 1696.31 475.837 1695.27 492.111 1685.31 504.264 C 1672.79 514.926 1656.28 512.475 1640.21 512.324 L 1640.21 458.624 z"/>
<path transform="translate(0,0)" fill="rgb(254,254,254)" d="M 1650.63 467.448 C 1661.11 467.05 1669.62 466.218 1678.21 473.657 C 1687.07 481.329 1683.41 491.893 1676.68 499.398 C 1668.76 505.068 1659.95 503.76 1650.38 503.612 C 1650.24 493.821 1649.68 476.673 1650.63 467.448 z"/>
<path transform="translate(0,0)" fill="rgb(16,74,117)" d="M 918.057 303.946 L 939.512 303.979 C 938.86 340.324 939.758 377.249 939.289 413.751 L 918.072 413.575 L 918.057 303.946 z"/>
<path transform="translate(0,0)" fill="rgb(16,74,117)" d="M 1694.24 303.908 L 1715.3 303.957 C 1714.16 339.823 1716.18 377.738 1714.95 413.604 L 1694.25 413.607 L 1694.24 303.908 z"/>
<path transform="translate(0,0)" fill="rgb(130,189,221)" d="M 862.077 458.441 C 879.463 458.323 909.96 454.507 905.937 481.554 C 904.997 487.873 900.381 491.027 895.584 494.424 C 899.132 499.978 905.697 505.565 905.321 511.107 C 902.286 512.805 900.955 512.216 897.187 512.204 C 894.471 509.13 888.82 500.264 886.276 496.479 C 881.857 496.294 876.153 496.521 871.629 496.589 C 871.791 502.194 872.813 507.848 869.419 511.958 C 868.151 512.1 862.874 512.465 862.706 511.033 C 861.387 499.777 859.733 468.295 862.077 458.441 z"/>
<path transform="translate(0,0)" fill="rgb(254,254,254)" d="M 871.845 467.279 C 879.099 467.051 886.869 466.153 893.167 470.368 C 894.761 471.422 895.866 473.07 896.235 474.946 C 896.947 478.764 895.13 482.491 893.121 485.561 C 886.761 489.102 879.074 488.211 871.76 488.081 C 871.47 481.035 871.674 474.31 871.845 467.279 z"/>
<path transform="translate(0,0)" fill="rgb(130,189,221)" d="M 1351.86 458.588 C 1365.18 458.407 1390.94 455.164 1396.09 470.51 C 1400.27 482.994 1392.53 492.124 1381.47 496.047 L 1361.95 496.406 C 1361.97 500.568 1362.54 508.447 1360.67 511.55 C 1357.55 512.127 1356.9 511.966 1353.76 511.49 C 1350.36 507.818 1351.84 466.803 1351.86 458.588 z"/>
<path transform="translate(0,0)" fill="rgb(254,254,254)" d="M 1361.98 467.289 C 1372.86 467.025 1396.64 467.306 1383.91 485.142 C 1376.49 489.065 1370.48 488.081 1362.11 487.905 L 1361.98 467.289 z"/>
<path transform="translate(0,0)" fill="rgb(130,189,221)" d="M 1272.71 458.713 C 1275.43 458.536 1276.76 458.668 1279.45 458.91 C 1285.72 462.547 1297.74 485.978 1302.13 493.636 C 1306.18 486.66 1320.54 458.32 1327.11 458.113 C 1333.31 462.299 1331.28 480.959 1331.41 488.153 C 1331.5 492.871 1332.43 509.403 1329.24 512.034 C 1326.28 512.329 1325.42 512.607 1322.82 511.151 C 1320.28 507.787 1321.36 500.689 1321.5 495.957 L 1321.31 477.193 C 1317.53 484.191 1308.9 503.186 1301.69 504.68 C 1296.34 502.65 1286.82 484.398 1282.54 477.673 C 1282.1 486.767 1285.36 506.982 1278.31 512.151 C 1274.6 512.095 1275.59 512.663 1273.26 510.538 C 1271.63 500.951 1272.59 469.894 1272.71 458.713 z"/>
<path transform="translate(0,0)" fill="rgb(130,189,221)" d="M 1023.73 458.106 C 1024.55 458.097 1025.37 458.108 1026.19 458.14 C 1029.44 458.282 1030.49 458.485 1032.8 460.865 C 1043.04 471.423 1050.92 483.582 1060.99 494.431 C 1061.41 486.89 1059.72 463.085 1062.67 459.061 C 1066.04 458.703 1066.57 458.663 1069.87 459.395 C 1072.45 463.163 1071.69 506.425 1070.68 512.777 C 1066.97 512.367 1064.39 512.859 1061.7 510.204 C 1051.11 499.744 1043.25 487.713 1033.15 476.289 C 1032.79 485.504 1037.03 509.142 1027.51 512.166 C 1026.24 511.889 1024.49 511.824 1024.22 510.821 C 1022.07 503.009 1022.65 463.795 1023.73 458.106 z"/>
<path transform="translate(0,0)" fill="rgb(130,189,221)" d="M 925.158 458.384 L 930.502 458.505 C 936.711 461.567 955.324 487.415 961.851 495.137 C 962.335 485.27 958.521 464.053 966.147 458.553 C 969.408 458.443 968.788 457.972 971.085 459.535 C 973.005 469.913 972.045 499.793 971.947 511.894 C 963.938 512.545 963.244 511.666 957.936 505.515 C 949.75 496.026 942.14 485.908 934.428 476.017 C 934.025 484.489 937.07 508.048 930.308 512.138 C 926.676 511.689 927.097 512.309 924.807 510.238 C 923.775 504.344 923.593 462.28 925.158 458.384 z"/>
<path transform="translate(0,0)" fill="rgb(130,189,221)" d="M 813.501 458.735 C 817.033 458.552 820.607 458.005 823.745 459.538 C 826.462 463.495 845.77 505.171 847.431 510.746 L 845.837 513.026 L 843.532 513.24 C 833.956 509.319 836.447 501.475 828.25 499.87 C 821.003 499.689 813.044 499.955 805.742 500.052 C 804.174 503.69 802.195 509.404 799.379 511.863 C 795.891 512.152 795.397 512.077 792.006 511.184 L 791.419 509.939 C 793.262 503.073 809.548 467.733 813.501 458.735 z"/>
<path transform="translate(0,0)" fill="rgb(254,254,254)" d="M 818.176 470.36 C 821.848 472.677 828.271 486.755 826.469 491.572 L 822.25 491.973 C 818.03 491.983 813.493 491.775 809.245 491.66 C 812.055 484.491 815.033 477.389 818.176 470.36 z"/>
<path transform="translate(0,0)" fill="rgb(130,189,221)" d="M 1587.05 458.509 C 1593.51 458.547 1618.94 456.602 1622.02 460.867 C 1621.94 465.521 1621.68 466.781 1616.32 467.188 C 1608.89 467.752 1600.57 467.46 1593.14 467.397 L 1592.97 480.747 C 1598.34 480.815 1613.37 480.446 1617.49 481.17 C 1619.59 483.726 1619.03 482.691 1619.07 486.464 C 1613.16 492.901 1599.26 486.176 1592.87 490.262 L 1592.98 503.57 C 1601.25 503.776 1615.01 501.878 1621.78 505.101 C 1623.82 507.63 1623.37 506.473 1623.09 510.089 C 1618.64 513.864 1590.22 512.272 1582.73 512.204 C 1583 503.539 1581.6 463.888 1584.18 459.127 L 1587.05 458.509 z"/>
<path transform="translate(0,0)" fill="rgb(130,189,221)" d="M 740.363 458.473 C 748.147 458.644 771.662 457.346 777.718 459.575 C 779.032 462.811 778.977 461.51 778.274 464.59 C 773.735 468.809 756.962 467.252 749.674 467.171 L 749.805 480.724 C 756.07 480.662 770.851 479.407 775.306 484.461 L 774.808 486.005 C 768.708 490.282 757.224 489.182 749.731 489 L 749.775 503.439 C 757.061 503.384 775 501.981 779.824 506.118 C 780.583 508.946 780.626 507.725 779.152 510.88 C 775.263 513.38 746.161 512.17 739.54 512.062 C 739.697 503.107 738.614 464.41 740.363 458.473 z"/>
<path transform="translate(0,0)" fill="rgb(130,189,221)" d="M 1110.06 458.317 C 1118.8 457.437 1134.05 457.476 1137.23 467.452 C 1136.19 470.705 1136.99 469.654 1134.33 471.518 C 1128.05 472.87 1120.65 460.385 1106.4 470.267 C 1102.42 472.98 1099.69 477.174 1098.82 481.912 C 1095.75 499.66 1116.91 509.973 1127.9 501.73 C 1129.26 499.2 1128.82 491.108 1128.81 487.78 C 1129 486.893 1129.59 486.147 1130.09 485.334 C 1139.8 483.152 1138.52 488.974 1138.54 496.459 C 1138.54 499.789 1138.3 503.225 1138.15 506.558 C 1128.08 512.733 1117.33 515.566 1105.8 510.824 C 1098.74 507.963 1093.14 502.375 1090.27 495.327 C 1083.02 477.339 1093.56 464.28 1110.06 458.317 z"/>
<path transform="translate(0,0)" fill="rgb(130,189,221)" d="M 1196.92 458.365 C 1203.9 457.375 1217.87 457.191 1222 463.583 C 1220.67 466.98 1221.52 465.953 1218.73 468.311 C 1212.97 469.918 1194.51 459.509 1193.36 474.139 C 1197.53 483.017 1234.65 482.221 1223.17 503.612 C 1220.05 509.438 1214.01 511.303 1208.07 512.961 C 1198.61 513.116 1192.35 512.96 1184.12 507.578 C 1182.58 504.695 1182.76 505.983 1183.46 502.739 C 1190.29 496.857 1209.86 511.514 1215.69 499.057 L 1214.76 496.683 C 1205.55 488.346 1188.44 488.928 1183.54 477.319 C 1179.5 467.756 1189.72 461.117 1196.92 458.365 z"/>
<path transform="translate(0,0)" fill="rgb(130,189,221)" d="M 1533.14 458.524 L 1535.41 459.161 C 1536.67 461.507 1536.51 462.124 1536.29 464.669 C 1531.3 468.8 1514.82 467.412 1507.26 467.378 L 1507.34 482.937 C 1513.91 482.848 1530.05 481.65 1534.15 486.907 L 1533.43 488.311 C 1527 492.757 1515.13 491.795 1507.29 491.698 C 1507.46 496.621 1508.51 507.796 1505.94 511.664 C 1503.1 512.306 1502.17 511.969 1499.34 511.412 C 1497.32 509.299 1497.05 508.295 1497.05 505.175 C 1497.01 489.784 1497.19 473.834 1497.28 458.487 L 1533.14 458.524 z"/>
<path transform="translate(0,0)" fill="rgb(130,189,221)" d="M 687.735 458.407 L 696.923 458.577 L 697.043 503.347 C 705.935 503.685 715.07 502.051 723.083 504.397 C 725.992 507.191 725.116 506.574 725.738 511.495 C 719.579 512.745 694.383 512.315 686.751 512.328 C 686.969 503.721 685.791 462.859 687.735 458.407 z"/>
<path transform="translate(0,0)" fill="rgb(130,189,221)" d="M 1413.52 458.697 C 1417.28 458.461 1418.46 458.306 1422.09 459.154 C 1424.88 463.387 1423.66 496.153 1423.61 503.518 C 1432.81 503.788 1441.89 501.667 1449.83 504.798 C 1452.08 507.902 1451.35 507.573 1451.42 512.163 L 1413.55 512.32 C 1413.21 494.654 1413.48 476.407 1413.52 458.697 z"/>
<path transform="translate(0,0)" fill="rgb(130,189,221)" d="M 1552.41 458.558 C 1556.14 458.379 1557.43 458.223 1561.02 459.093 C 1564.17 462.856 1562.77 504.6 1562.56 512.199 C 1558.56 512.331 1555.97 512.776 1552.98 510.715 C 1551.54 504.072 1552.35 467.437 1552.41 458.558 z"/>
<path transform="translate(0,0)" fill="rgb(130,189,221)" d="M 992.396 458.335 C 995.886 458.154 997.928 457.794 1001.13 459.122 C 1003.33 462.644 1002.3 505.13 1002.26 512.156 C 998.498 512.238 997.062 512.374 993.46 511.424 C 991.085 508.431 992.338 465.149 992.396 458.335 z"/>
<path transform="translate(0,0)" fill="rgb(130,189,221)" d="M 1467.72 458.179 C 1470.71 458.24 1473.53 457.848 1475.59 459.823 C 1476.6 466.378 1477.07 508.93 1474.71 512.693 C 1470.58 512.221 1469.47 512.763 1466.48 510.424 C 1465.7 503.852 1465.29 461.792 1467.72 458.179 z"/>
<path transform="translate(0,0)" fill="rgb(130,189,221)" d="M 1242.19 458.404 C 1245.26 458.366 1248.55 457.9 1250.82 459.828 C 1252.03 466.208 1251.63 501.426 1251.66 510.69 C 1251.15 511.231 1249.66 512.025 1248.94 512.453 C 1245.41 512.279 1246.25 512.782 1243.5 511.022 C 1240.25 504.306 1241.28 467.014 1242.19 458.404 z"/>
<path transform="translate(0,0)" fill="rgb(20,70,109)" d="M 1973.08 313.486 C 1973.16 317.324 1973.66 329.319 1972.24 331.954 L 1969.84 332.424 C 1967.07 329.254 1965.19 305.098 1971.24 303.264 C 1975.2 305.695 1981.29 317.443 1983.98 322.139 C 1986.54 317.513 1992.42 305.267 1996.99 303.9 L 1998.67 304.888 C 2000.66 308.334 1999.96 313.936 1999.84 318.119 C 2000.07 322.228 2000.92 327.936 1999.14 331.41 C 1997.27 332.447 1997.01 332.469 1994.87 332.409 C 1993.99 327.903 1994.3 318.772 1994.32 313.825 C 1990.93 319.548 1987.46 325.224 1983.92 330.854 C 1980.64 326.273 1976.16 318.485 1973.08 313.486 z"/>
<path transform="translate(0,0)" fill="rgb(20,70,109)" d="M 1938.6 303.313 C 1944.03 303.316 1960.16 302.427 1963.61 304.693 L 1963.83 306.844 C 1960.72 309.183 1960.03 307.639 1955.05 308.602 C 1953.44 311.511 1954.09 316.887 1954.08 320.75 C 1954.3 325.85 1955.06 328.667 1952.04 332.575 L 1950 332.49 C 1945.44 328.066 1949.74 318.059 1948.53 311.611 C 1947.35 305.333 1943.61 310.431 1939.03 307.016 L 1938.6 303.313 z"/>
</svg>